<svg xmlns="http://www.w3.org/2000/svg" width="117" height="18" viewBox="0 0 117 18">
  <g fill="none">
    <path fill="#FFF" d="M32.11119,12.459465 C31.433355,11.779875 31.051935,10.859715 31.05009,9.899865 C31.05009,8.944965 31.43079,8.026965 32.11119,7.340715 C32.45661,7.010685 32.864085,6.752475 33.30999,6.581115 C33.75846,6.408585 34.23636,6.32556 34.71669,6.336765 C35.46972,6.318675 36.2106,6.52869 36.84204,6.939315 C37.458675,7.3422 37.918485,7.944345 38.14479,8.645265 L36.05409,8.645265 C35.9379,8.40438 35.75277,8.20341 35.52219,8.067915 C35.28927,7.930665 35.021475,7.863885 34.75134,7.875765 C34.491735,7.86159 34.23204,7.902045 33.98904,7.994565 C33.747435,8.08623 33.52806,8.22825 33.34554,8.411265 C33.01596,8.82477 32.83623,9.33777 32.83569,9.866565 C32.83569,10.393065 33.01524,10.905615 33.34599,11.321865 C33.52734,11.504115 33.74649,11.645865 33.98949,11.738565 C34.232355,11.830995 34.491915,11.871495 34.75134,11.857365 C35.01504,11.874915 35.27784,11.818215 35.50914,11.693565 C35.73891,11.570085 35.92818,11.382885 36.05409,11.154465 L38.11104,11.154465 C37.88478,11.85552 37.42497,12.4578 36.80829,12.860865 C36.176805,13.27131 35.435925,13.48119 34.68294,13.462965 C34.20837,13.46976 33.73695,13.384665 33.29469,13.212315 C32.85495,13.041135 32.45301,12.785355 32.11164,12.459465 L32.11119,12.459465 Z M39.89349,12.459465 C39.21552,11.77992 38.833875,10.85976 38.83194,9.899865 C38.83194,8.944965 39.21264,8.026965 39.89349,7.340715 C40.60566,6.69123 41.53518,6.331905 42.49899,6.33360892 C43.46649,6.33360892 44.39844,6.693615 45.1044,7.340715 C45.7821,8.02017 46.1637,8.94015 46.1655,9.899865 C46.1637,10.85976 45.7821,11.77992 45.10395,12.459465 C44.39574,13.116555 43.464735,13.48092 42.49854,13.4791713 C41.53239,13.48092 40.601385,13.116555 39.89304,12.459465 L39.89349,12.459465 Z M43.87014,11.355165 C44.19981,10.94184 44.379675,10.428975 44.38044,9.900315 C44.38044,9.373815 44.20044,8.861715 43.87014,8.445015 C43.500915,8.09199 43.009425,7.89543 42.49854,7.89646093 C41.98554,7.89646093 41.49324,8.093565 41.12739,8.445465 C40.797765,8.85879 40.617855,9.37161 40.61709,9.900315 C40.61709,10.427265 40.79664,10.939365 41.12739,11.355615 C41.49657,11.708505 41.987835,11.905065 42.49854,11.9041681 C43.01154,11.9041681 43.50429,11.707065 43.87014,11.355615 L43.87014,11.355165 Z M49.7664,6.437115 C50.79195,6.397965 51.79455,6.74406 52.57755,7.407315 C52.9227,7.730235 53.1981,8.12007 53.38755,8.553015 C53.5752,8.98308 53.6724,9.447255 53.6724,9.916515 C53.6724,10.385775 53.5752,10.84995 53.38755,11.280015 C53.1981,11.71296 52.9227,12.102795 52.57755,12.425715 C51.79635,13.09194 50.7924,13.438485 49.7664,13.395915 L47.26395,13.395915 L47.26395,6.437115 L49.7664,6.437115 Z M48.978,12.125115 L49.7664,12.125115 C50.058,12.14181 50.35005,12.096585 50.62275,11.992365 C50.8941,11.88918 51.1398,11.728935 51.34365,11.522565 C51.54255,11.30697 51.69645,11.05389 51.7968,10.77813 C51.8967,10.502415 51.9408,10.20951 51.9264,9.916515 C51.9408,9.62361 51.8967,9.33075 51.7968,9.055125 C51.69645,8.779455 51.54255,8.526465 51.34365,8.310915 C51.1398,8.1045 50.8941,7.9443 50.62275,7.841115 C50.35005,7.73703 50.058,7.69194 49.7664,7.708815 L48.978,7.708815 L48.978,12.124665 L48.978,12.125115 Z M59.09085,6.403815 L59.09085,7.708815 L56.51955,7.708815 L56.51955,9.214065 L58.81635,9.214065 L58.81635,10.519065 L56.52,10.519065 L56.52,12.124665 L59.0913,12.124665 L59.0913,13.429665 L54.77175,13.429665 L54.77175,6.403815 L59.09085,6.403815 Z M62.3475,10.686015 L62.3475,13.395915 L60.59925,13.395915 L60.59925,6.437115 L63.4104,6.437115 C64.10745,6.40107 64.79235,6.628005 65.3301,7.072965 C65.5488,7.261065 65.7234,7.492815 65.84175,7.752465 C65.9601,8.012565 66.0195,8.294265 66.0159,8.578665 C66.0078,8.99748 65.8764,9.404595 65.6388,9.749565 C65.34045,10.1601 64.9008,10.44594 64.40445,10.552365 L66.1527,13.396365 L64.1646,13.396365 L62.5536,10.686015 L62.3475,10.686015 Z M62.3475,7.708815 L62.3475,9.381465 L63.4104,9.381465 C63.52425,9.385965 63.63765,9.367965 63.7443,9.327465 C63.8505,9.286965 63.9468,9.225765 64.0278,9.147465 C64.10655,9.067365 64.1682,8.972865 64.2096,8.869815 C64.25055,8.766315 64.27035,8.656065 64.2672,8.544915 C64.27035,8.43399 64.25055,8.323605 64.2096,8.220465 C64.1682,8.11665 64.1061,8.022195 64.02735,7.942815 C63.94635,7.86402 63.8496,7.80273 63.74385,7.762815 C63.63765,7.72245 63.52425,7.70409 63.4104,7.708815 L62.3475,7.708815 Z M69.8211,7.675065 C69.624,7.6644 69.4296,7.72371 69.2721,7.842465 C69.20055,7.904565 69.1443,7.982415 69.10875,8.069715 C69.07275,8.156565 69.0588,8.250615 69.0669,8.344215 C69.06555,8.43741 69.0831,8.529975 69.1182,8.616195 C69.15375,8.70246 69.20595,8.780625 69.27255,8.845965 C69.41655,8.985465 69.59295,9.088515 69.7869,9.147465 L70.47225,9.347715 L71.22645,9.581715 L71.91225,9.916515 C72.1314,10.059165 72.3087,10.255365 72.4266,10.485315 C72.5661,10.755315 72.6363,11.053215 72.63225,11.355165 C72.62955,11.64582 72.56025,11.931975 72.42975,12.191715 C72.29835,12.453345 72.1098,12.682035 71.87805,12.860865 C71.32635,13.30488 70.6311,13.53096 69.9237,13.496265 C69.2271,13.53168 68.53905,13.331475 67.9698,12.927915 C67.7241,12.73887 67.527,12.49389 67.3947,12.213315 C67.26375,11.935035 67.20255,11.629125 67.2156,11.321865 L69.0669,11.321865 C69.0615,11.435715 69.0813,11.550015 69.1245,11.655765 C69.16815,11.761965 69.2343,11.857815 69.31845,11.937015 C69.40395,12.01617 69.50475,12.076695 69.615,12.11481 C69.72525,12.152925 69.8418,12.167775 69.9579,12.158415 C70.17165,12.167415 70.3809,12.095415 70.5411,11.957265 C70.6113,11.89458 70.6662,11.816865 70.70175,11.72997 C70.7373,11.643075 70.7526,11.54925 70.74675,11.455515 C70.75035,11.36205 70.7337,11.2689 70.6986,11.18232 C70.66305,11.095785 70.6095,11.017845 70.5411,10.953765 C70.3944,10.816155 70.2189,10.713285 70.02675,10.652715 L69.34095,10.452015 L68.58675,10.218015 L67.9014,9.883215 C67.6809,9.744525 67.50315,9.547695 67.38705,9.314415 C67.27545,9.050445 67.2282,8.76366 67.2498,8.477865 C67.23945,8.175735 67.302,7.87554 67.43295,7.603065 C67.56525,7.328385 67.76145,7.0893 68.00445,6.905565 C68.54535,6.49458 69.2109,6.282 69.88995,6.303465 C70.54425,6.273765 71.19135,6.449175 71.7408,6.805215 C71.98695,6.99426 72.18405,7.23924 72.3159,7.519815 C72.4473,7.798815 72.5085,8.104365 72.495,8.410815 L70.6095,8.410815 C70.5969,8.199495 70.5123,7.998885 70.36965,7.842465 C70.2945,7.778655 70.20675,7.73091 70.1127,7.70211 C70.0182,7.67331 69.91875,7.66413 69.82065,7.675065 L69.8211,7.675065 Z M75.71745,10.686015 L75.71745,13.395915 L73.9692,13.395915 L73.9692,6.437115 L76.78035,6.437115 C77.4774,6.40107 78.1623,6.628005 78.70005,7.072965 C78.91875,7.261065 79.09335,7.492815 79.2117,7.752465 C79.33005,8.012565 79.38945,8.294265 79.38585,8.578665 C79.37775,8.99748 79.24635,9.404595 79.00875,9.749565 C78.7104,10.1601 78.27075,10.44594 77.7744,10.552365 L79.52265,13.396365 L77.535,13.396365 L75.924,10.686015 L75.7179,10.686015 L75.71745,10.686015 Z M75.71745,7.708815 L75.71745,9.381465 L76.78035,9.381465 C76.8942,9.385965 77.0076,9.367965 77.11425,9.327465 C77.22045,9.286965 77.31675,9.225765 77.39775,9.147465 C77.4765,9.067365 77.53815,8.972865 77.57955,8.869815 C77.6205,8.766315 77.6403,8.656065 77.63715,8.544915 C77.6403,8.43399 77.6205,8.323605 77.57955,8.220465 C77.53815,8.11665 77.47605,8.022195 77.3973,7.942815 C77.3163,7.86402 77.21955,7.80273 77.1138,7.762815 C77.0076,7.72245 76.8942,7.70409 76.78035,7.708815 L75.71745,7.708815 Z M85.3164,13.395915 L84.9051,12.225015 L82.3338,12.225015 L81.9225,13.395915 L80.0712,13.395915 L82.53945,6.403815 L84.6648,6.403815 L87.13305,13.395915 L85.3164,13.395915 Z M82.7793,10.920465 L84.45915,10.920465 L83.63655,8.477865 L82.7793,10.920465 Z M92.6874,6.403815 L94.43565,6.403815 L94.43565,13.395915 L92.6874,13.395915 L89.7732,8.980065 L89.7732,13.395915 L88.02495,13.395915 L88.02495,6.403815 L89.7732,6.403815 L92.6874,10.820115 L92.6874,6.403815 Z M97.69185,13.395915 L95.9436,13.395915 L95.9436,6.437115 L97.69185,6.437115 L97.69185,9.481815 L100.0575,6.437115 L102.3543,6.437115 L99.4059,9.916515 L102.3543,13.395915 L100.1259,13.395915 L97.72605,10.317915 L97.69185,13.395915 Z M104.78835,12.492765 C104.7816,12.70125 104.70195,12.90078 104.56335,13.056615 C104.42295,13.21443 104.23305,13.319775 104.0247,13.355415 C103.81545,13.391775 103.5999,13.356585 103.41315,13.255515 C103.22865,13.15575 103.08375,12.99519 103.00365,12.801015 C102.9249,12.60882 102.91635,12.39498 102.97935,12.197115 C103.0428,11.999115 103.1742,11.828115 103.3515,11.712915 C103.5297,11.598165 103.7412,11.546685 103.9518,11.5668 C104.16285,11.58687 104.36085,11.67732 104.51385,11.823615 C104.6043,11.910915 104.6754,12.015315 104.72265,12.130515 C104.7699,12.245715 104.79195,12.369015 104.78835,12.492765 Z"/>
    <path fill="#50B0BA" d="M105.88545 13.39587L105.88545 6.43707 107.6337 6.43707 107.6337 13.39587 105.88545 13.39587zM109.8279 12.45942C109.1502 11.77983 108.7686 10.85967 108.7668 9.89982 108.7668 8.94492 109.1475 8.02692 109.8279 7.34067 110.54025 6.691185 111.4695 6.331905 112.4334 6.33356424 113.40135 6.33356424 114.3333 6.69357 115.0389 7.34067 115.7166 8.02017 116.0982 8.940105 116.1 9.89982 116.0982 10.85967 115.71705 11.77983 115.0389 12.45942 114.3306 13.11651 113.39955 13.480875 112.4334 13.4791263 111.46725 13.480875 110.5362 13.11651 109.8279 12.45942zM113.80455 11.35512C114.1344 10.941795 114.3144 10.428975 114.31485 9.90027 114.31485 9.37377 114.1353 8.86167 113.80455 8.44497 113.43555 8.092035 112.94415 7.89552 112.4334 7.89641692 111.9204 7.89641692 111.42765 8.09352 111.06225 8.44542 110.73285 8.858745 110.55285 9.371565 110.55195 9.90027 110.55195 10.42722 110.7315 10.93932 111.06225 11.35557 111.4317 11.708505 111.92265 11.90502 112.4334 11.9041231 112.9464 11.9041231 113.43915 11.70702 113.80455 11.35557L113.80455 11.35512zM.966248999 8.83557C.307000349 9.23427-.0151994712 9.68067.000550524256 10.17522L.000550524256 11.51622C.0163005288 12.01122.346150349 12.44997.990548999 12.83292L7.91739 16.83117C7.95852 16.855245 8.00442 16.87005 8.051895 16.874505 8.099325 16.87896 8.14716 16.872975 8.19207 16.856955 8.236935 16.84098 8.277795 16.815375 8.31177 16.781895 8.3457 16.74846 8.37189 16.708005 8.38854 16.66332L9.94374 12.90492 6.64524 11.03742C6.550155 10.9881 6.470235 10.91394 6.41394 10.82277 6.371775 10.75428 6.343695 10.67805 6.33132 10.59858 6.3189 10.51911 6.3225 10.437975 6.341805 10.3599 6.36111 10.28178 6.39576 10.20834 6.443775 10.14381 6.49179 10.07928 6.55218 10.02492 6.62139 9.98397L12.67704 6.27282 15.17409.19242945C15.18408.16395075 15.18498.13307265 15.1767.10405575 15.16842.0750393 15.151275.04931415 15.12774.03042963 15.10434.011777625 15.075585.001139886 15.045705-.0000735357764 15.01578-.000966825 14.98635.007619985 14.96169.02457963L.966248999 8.83557zM26.46009 4.93272L19.62819.790938C19.58859.7662375 19.54413.7503165 19.49787.7442415 19.451565.738171 19.404495.7420905 19.359855.7557345 19.315215.7693785 19.27404.7924365 19.23903.823347 19.204065.854262 19.17612.8923095 19.15704.934938L17.55504 4.69332 20.80629 6.63282C20.89989 6.68367 20.97774 6.75972 21.03219 6.85242 21.086775 6.945435 21.11553 7.05132 21.11553 7.159095 21.11553 7.266915 21.086775 7.3728 21.03219 7.46577 20.978235 7.558335 20.90016 7.634565 20.80629 7.68627L14.70384 11.27727 12.11184 17.31042C12.086775 17.339085 12.073905 17.37648 12.07611 17.41455 12.078315 17.452575 12.095325 17.488215 12.12354 17.51382 12.1374 17.52642 12.1536 17.53605 12.171195 17.542305 12.188835 17.548515 12.20751 17.55117 12.22614 17.550045 12.244815 17.548965 12.26304 17.544195 12.279825 17.53596 12.296565 17.527725 12.31155 17.516205 12.32379 17.50212L16.80084 14.79672 18.56799 17.33472C18.606645 17.39322 18.65907 17.441235 18.720675 17.47458 18.782325 17.50797 18.851175 17.52561 18.92124 17.52597L23.16249 17.52597C23.239845 17.52624 23.31576 17.50509 23.38182 17.464905 23.44788 17.42472 23.501565 17.367075 23.53689 17.29827 23.57325 17.22933 23.59044 17.151885 23.58675 17.07399 23.583015 16.99614 23.55849 16.920675 23.51574 16.85547L20.64114 12.44997 26.46099 8.93097C27.12069 8.53182 27.45054 8.08497 27.45054 7.58997L27.45054 6.27327C27.45054 5.77827 27.12069 5.33187 26.46054 4.93272L26.46009 4.93272z"/>
  </g>
</svg>
